<svg width="1440" height="620" viewBox="0 0 1440 620" fill="none" xmlns="http://www.w3.org/2000/svg">
<path d="M0 0.683594H1440V135.114C1440 185.986 1410.77 232.331 1364.85 254.242L855.5 497.335L634.859 600.636C607.938 613.24 577.794 617.266 548.509 612.168L119.689 537.52C85.3291 531.539 55.9065 509.477 40.537 478.17L0 395.598V0.683594Z" fill="white"/>
<path d="M0 0.683594H1440V135.114C1440 185.986 1410.77 232.331 1364.85 254.242L855.5 497.335L634.859 600.636C607.938 613.24 577.794 617.266 548.509 612.168L119.689 537.52C85.3291 531.539 55.9065 509.477 40.537 478.17L0 395.598V0.683594Z" fill="url(#paint0_linear_342_57)"/>
<path d="M0 1H574L562.773 61.1436C556.775 93.2763 533.272 119.335 501.927 128.607L213.939 213.788C198.168 218.453 181.283 217.655 166.022 211.524L0 144.83V1Z" fill="#9074C5"/>
<defs>
<linearGradient id="paint0_linear_342_57" x1="80.4523" y1="389.808" x2="2126.83" y2="-709.975" gradientUnits="userSpaceOnUse">
<stop stop-color="#523C7B"/>
<stop offset="0.361354" stop-color="#7C62AD"/>
<stop offset="0.688706" stop-color="#DCD1F1"/>
<stop offset="1" stop-color="white" stop-opacity="0"/>
</linearGradient>
</defs>
</svg>
