<svg width="44" height="44" viewBox="0 0 44 44" fill="none" xmlns="http://www.w3.org/2000/svg">
<path d="M14.502 34.6055C14.502 34.7812 14.3262 34.8691 14.0625 34.8691C13.7988 34.957 13.623 34.7812 13.623 34.6055C13.623 34.4297 13.7988 34.2539 14.0625 34.2539C14.3262 34.2539 14.502 34.4297 14.502 34.6055ZM11.7773 34.166C11.8652 33.9902 12.1289 33.9023 12.3926 33.9902C12.6562 34.0781 12.7441 34.2539 12.7441 34.4297C12.6562 34.6055 12.3926 34.6934 12.2168 34.6055C11.9531 34.6055 11.7773 34.3418 11.7773 34.166ZM15.7324 34.0781C15.9082 33.9902 16.1719 34.166 16.1719 34.3418C16.2598 34.5176 16.084 34.6055 15.8203 34.6934C15.5566 34.7812 15.293 34.6934 15.293 34.5176C15.293 34.2539 15.4688 34.0781 15.7324 34.0781ZM21.4453 0.328125C33.6621 0.328125 43.5938 9.64453 43.5938 21.7734C43.5938 31.5293 37.6172 39.8789 28.8281 42.7793C27.6855 43.043 27.2461 42.3398 27.2461 41.7246C27.2461 41.0215 27.334 37.3301 27.334 34.4297C27.334 32.3203 26.6309 31.002 25.8398 30.2988C30.7617 29.7715 35.9473 29.0684 35.9473 20.6309C35.9473 18.1699 35.0684 17.0273 33.6621 15.4453C33.8379 14.8301 34.6289 12.5449 33.3984 9.46875C31.5527 8.85352 27.334 11.8418 27.334 11.8418C25.5762 11.3145 23.7305 11.1387 21.7969 11.1387C19.9512 11.1387 18.1055 11.3145 16.3477 11.8418C16.3477 11.8418 12.041 8.94141 10.2832 9.46875C9.05273 12.5449 9.75586 14.8301 10.0195 15.4453C8.61328 17.0273 7.91016 18.1699 7.91016 20.6309C7.91016 29.0684 12.9199 29.7715 17.8418 30.2988C17.1387 30.9141 16.6113 31.8809 16.4355 33.2871C15.1172 33.9023 11.9531 34.8691 10.0195 31.4414C8.78906 29.332 6.5918 29.1562 6.5918 29.1562C4.48242 29.1562 6.50391 30.5625 6.50391 30.5625C7.91016 31.1777 8.87695 33.7266 8.87695 33.7266C10.1953 37.6816 16.3477 36.3633 16.3477 36.3633C16.3477 38.209 16.3477 41.1973 16.3477 41.8125C16.3477 42.3398 15.9961 43.043 14.8535 42.8672C6.06445 39.8789 0 31.5293 0 21.7734C0 9.64453 9.31641 0.328125 21.4453 0.328125ZM8.52539 30.6504C8.61328 30.5625 8.78906 30.6504 8.96484 30.7383C9.14062 30.9141 9.14062 31.1777 9.05273 31.2656C8.87695 31.3535 8.70117 31.2656 8.52539 31.1777C8.4375 31.002 8.34961 30.7383 8.52539 30.6504ZM7.55859 29.9473C7.64648 29.8594 7.73438 29.8594 7.91016 29.9473C8.08594 30.0352 8.17383 30.123 8.17383 30.2109C8.08594 30.3867 7.91016 30.3867 7.73438 30.2988C7.55859 30.2109 7.4707 30.123 7.55859 29.9473ZM10.3711 33.1113C10.5469 32.9355 10.8105 33.0234 10.9863 33.1992C11.1621 33.375 11.1621 33.6387 11.0742 33.7266C10.9863 33.9023 10.7227 33.8145 10.5469 33.6387C10.2832 33.4629 10.2832 33.1992 10.3711 33.1113ZM9.4043 31.793C9.58008 31.7051 9.75586 31.793 9.93164 31.9688C10.0195 32.1445 10.0195 32.4082 9.93164 32.4961C9.75586 32.584 9.58008 32.4961 9.4043 32.3203C9.22852 32.1445 9.22852 31.8809 9.4043 31.793Z" fill="url(#paint0_linear_318_78)"/>
<defs>
<linearGradient id="paint0_linear_318_78" x1="0" y1="22.5" x2="44" y2="22.5" gradientUnits="userSpaceOnUse">
<stop offset="0.675" stop-color="#AA3CC6"/>
<stop offset="1" stop-color="#521D60"/>
</linearGradient>
</defs>
</svg>
