<svg width="189" height="44" viewBox="0 0 189 44" fill="none" xmlns="http://www.w3.org/2000/svg">
<path d="M93.225 5.55V23H89.725V5.55H93.225ZM95.783 16.025C95.783 14.625 96.058 13.3833 96.608 12.3C97.1747 11.2167 97.933 10.3833 98.883 9.8C99.8497 9.21667 100.925 8.925 102.108 8.925C103.141 8.925 104.041 9.13333 104.808 9.55C105.591 9.96667 106.216 10.4917 106.683 11.125V9.15H110.208V23H106.683V20.975C106.233 21.625 105.608 22.1667 104.808 22.6C104.025 23.0167 103.116 23.225 102.083 23.225C100.916 23.225 99.8497 22.925 98.883 22.325C97.933 21.725 97.1747 20.8833 96.608 19.8C96.058 18.7 95.783 17.4417 95.783 16.025ZM106.683 16.075C106.683 15.225 106.516 14.5 106.183 13.9C105.85 13.2833 105.4 12.8167 104.833 12.5C104.266 12.1667 103.658 12 103.008 12C102.358 12 101.758 12.1583 101.208 12.475C100.658 12.7917 100.208 13.2583 99.858 13.875C99.5247 14.475 99.358 15.1917 99.358 16.025C99.358 16.8583 99.5247 17.5917 99.858 18.225C100.208 18.8417 100.658 19.3167 101.208 19.65C101.775 19.9833 102.375 20.15 103.008 20.15C103.658 20.15 104.266 19.9917 104.833 19.675C105.4 19.3417 105.85 18.875 106.183 18.275C106.516 17.6583 106.683 16.925 106.683 16.075ZM118.926 23.225C117.793 23.225 116.776 23.025 115.876 22.625C114.976 22.2083 114.26 21.65 113.726 20.95C113.21 20.25 112.926 19.475 112.876 18.625H116.401C116.468 19.1583 116.726 19.6 117.176 19.95C117.643 20.3 118.218 20.475 118.901 20.475C119.568 20.475 120.085 20.3417 120.451 20.075C120.835 19.8083 121.026 19.4667 121.026 19.05C121.026 18.6 120.793 18.2667 120.326 18.05C119.876 17.8167 119.151 17.5667 118.151 17.3C117.118 17.05 116.268 16.7917 115.601 16.525C114.951 16.2583 114.385 15.85 113.901 15.3C113.435 14.75 113.201 14.0083 113.201 13.075C113.201 12.3083 113.418 11.6083 113.851 10.975C114.301 10.3417 114.935 9.84167 115.751 9.475C116.585 9.10833 117.56 8.925 118.676 8.925C120.326 8.925 121.643 9.34167 122.626 10.175C123.61 10.9917 124.151 12.1 124.251 13.5H120.901C120.851 12.95 120.618 12.5167 120.201 12.2C119.801 11.8667 119.26 11.7 118.576 11.7C117.943 11.7 117.451 11.8167 117.101 12.05C116.768 12.2833 116.601 12.6083 116.601 13.025C116.601 13.4917 116.835 13.85 117.301 14.1C117.768 14.3333 118.493 14.575 119.476 14.825C120.476 15.075 121.301 15.3333 121.951 15.6C122.601 15.8667 123.16 16.2833 123.626 16.85C124.11 17.4 124.36 18.1333 124.376 19.05C124.376 19.85 124.151 20.5667 123.701 21.2C123.268 21.8333 122.635 22.3333 121.801 22.7C120.985 23.05 120.026 23.225 118.926 23.225ZM129.024 7.5C128.408 7.5 127.891 7.30833 127.474 6.925C127.074 6.525 126.874 6.03333 126.874 5.45C126.874 4.86667 127.074 4.38333 127.474 4C127.891 3.6 128.408 3.4 129.024 3.4C129.641 3.4 130.149 3.6 130.549 4C130.966 4.38333 131.174 4.86667 131.174 5.45C131.174 6.03333 130.966 6.525 130.549 6.925C130.149 7.30833 129.641 7.5 129.024 7.5ZM130.749 9.15V23H127.249V9.15H130.749ZM133.307 16.075C133.307 14.6417 133.599 13.3917 134.182 12.325C134.766 11.2417 135.574 10.4083 136.607 9.825C137.641 9.225 138.824 8.925 140.157 8.925C141.874 8.925 143.291 9.35833 144.407 10.225C145.541 11.075 146.299 12.275 146.682 13.825H142.907C142.707 13.225 142.366 12.7583 141.882 12.425C141.416 12.075 140.832 11.9 140.132 11.9C139.132 11.9 138.341 12.2667 137.757 13C137.174 13.7167 136.882 14.7417 136.882 16.075C136.882 17.3917 137.174 18.4167 137.757 19.15C138.341 19.8667 139.132 20.225 140.132 20.225C141.549 20.225 142.474 19.5917 142.907 18.325H146.682C146.299 19.825 145.541 21.0167 144.407 21.9C143.274 22.7833 141.857 23.225 140.157 23.225C138.824 23.225 137.641 22.9333 136.607 22.35C135.574 21.75 134.766 20.9167 134.182 19.85C133.599 18.7667 133.307 17.5083 133.307 16.075ZM157.046 8.95C158.096 8.95 159.03 9.18333 159.846 9.65C160.663 10.1 161.296 10.775 161.746 11.675C162.213 12.5583 162.446 13.625 162.446 14.875V23H158.946V15.35C158.946 14.25 158.671 13.4083 158.121 12.825C157.571 12.225 156.821 11.925 155.871 11.925C154.905 11.925 154.138 12.225 153.571 12.825C153.021 13.4083 152.746 14.25 152.746 15.35V23H149.246V4.5H152.746V10.875C153.196 10.275 153.796 9.80833 154.546 9.475C155.296 9.125 156.13 8.95 157.046 8.95Z" fill="#1A1525"/>
<path d="M12.2698 20.0142L4.67004 20.0793L3.30427 23.9661L0.904362 23.9867L7.0513 6.60839L9.6762 6.5859L16.1038 23.8564L13.7039 23.877L12.2698 20.0142ZM11.6035 18.1698L8.37595 9.39714L5.3037 18.2238L11.6035 18.1698ZM30.8952 6.30401L25.3162 17.2022L25.3742 23.777L23.0993 23.7965L23.0412 17.2217L17.2457 6.42101L19.7707 6.39937L24.1483 15.1872L28.3703 6.32566L30.8952 6.30401ZM35.586 8.11388L35.6374 13.9386L41.9872 13.8842L42.0037 15.7591L35.6539 15.8136L35.7069 21.8133L42.8066 21.7525L42.8231 23.6274L33.4485 23.7078L33.2945 6.25845L42.6692 6.17809L42.6857 8.05302L35.586 8.11388ZM48.524 21.7285L54.6238 21.6762L54.6401 23.5261L46.2654 23.5979L46.1117 6.17359L48.3866 6.15409L48.524 21.7285ZM59.1935 7.91153L59.2449 13.7363L65.5947 13.6819L65.6112 15.5568L59.2615 15.6112L59.3144 21.611L66.4141 21.5501L66.4307 23.4251L57.056 23.5054L56.9021 6.0561L66.2767 5.97574L66.2933 7.85067L59.1935 7.91153ZM63.7437 2.24732L58.4441 5.14285L58.4291 3.44291L63.7263 0.272394L63.7437 2.24732ZM83.5724 23.2781L81.2975 23.2976L72.0254 9.5016L72.1478 23.3761L69.8729 23.3956L69.719 5.94624L71.9939 5.92674L81.2657 19.6978L81.1436 5.84831L83.4185 5.82881L83.5724 23.2781Z" fill="url(#paint0_linear_340_56)"/>
<path d="M9.8608 41V32.2727H15.4517V33.598H11.4418V35.9673H15.0682V37.2926H11.4418V41H9.8608ZM22.3935 32.2727H23.9744V37.9744C23.9744 38.5994 23.8267 39.1491 23.5312 39.6236C23.2386 40.098 22.8267 40.4687 22.2955 40.7358C21.7642 41 21.1435 41.1321 20.4332 41.1321C19.7202 41.1321 19.098 41 18.5668 40.7358C18.0355 40.4687 17.6236 40.098 17.331 39.6236C17.0384 39.1491 16.892 38.5994 16.892 37.9744V32.2727H18.473V37.8423C18.473 38.206 18.5526 38.5298 18.7116 38.8139C18.8736 39.098 19.1009 39.321 19.3935 39.483C19.6861 39.642 20.0327 39.7216 20.4332 39.7216C20.8338 39.7216 21.1804 39.642 21.473 39.483C21.7685 39.321 21.9957 39.098 22.1548 38.8139C22.3139 38.5298 22.3935 38.206 22.3935 37.8423V32.2727ZM25.6928 41V32.2727H27.2738V39.6747H31.1175V41H25.6928ZM32.4897 41V32.2727H34.0707V39.6747H37.9144V41H32.4897ZM47.006 34.6719C46.9663 34.2997 46.7987 34.0099 46.5032 33.8026C46.2106 33.5952 45.8299 33.4915 45.3612 33.4915C45.0316 33.4915 44.7489 33.5412 44.5131 33.6406C44.2773 33.7401 44.0969 33.875 43.9719 34.0455C43.8469 34.2159 43.783 34.4105 43.7802 34.6293C43.7802 34.8111 43.8214 34.9687 43.9038 35.1023C43.989 35.2358 44.104 35.3494 44.2489 35.4432C44.3938 35.5341 44.5543 35.6108 44.7305 35.6733C44.9066 35.7358 45.0842 35.7884 45.2631 35.831L46.0813 36.0355C46.4109 36.1122 46.7276 36.2159 47.0316 36.3466C47.3384 36.4773 47.6126 36.642 47.854 36.8409C48.0984 37.0398 48.2915 37.2798 48.4336 37.5611C48.5756 37.8423 48.6467 38.1719 48.6467 38.5497C48.6467 39.0611 48.516 39.5114 48.2546 39.9006C47.9933 40.2869 47.6154 40.5895 47.1211 40.8082C46.6296 41.0241 46.0344 41.1321 45.3356 41.1321C44.6566 41.1321 44.0671 41.027 43.5671 40.8168C43.07 40.6065 42.6808 40.2997 42.3995 39.8963C42.1211 39.4929 41.9705 39.0014 41.9478 38.4219H43.5032C43.5259 38.7259 43.6197 38.9787 43.7844 39.1804C43.9492 39.3821 44.1637 39.5327 44.4279 39.6321C44.695 39.7315 44.9933 39.7812 45.3228 39.7812C45.6665 39.7812 45.9677 39.7301 46.2262 39.6278C46.4876 39.5227 46.6921 39.3778 46.8398 39.1932C46.9876 39.0057 47.0629 38.7869 47.0657 38.5369C47.0629 38.3097 46.9961 38.1222 46.8654 37.9744C46.7347 37.8239 46.5515 37.6989 46.3157 37.5994C46.0827 37.4972 45.81 37.4062 45.4975 37.3267L44.5046 37.071C43.7859 36.8864 43.2177 36.6065 42.8001 36.2315C42.3853 35.8537 42.1779 35.3523 42.1779 34.7273C42.1779 34.2131 42.3171 33.7628 42.5955 33.3764C42.8768 32.9901 43.2589 32.6903 43.7418 32.4773C44.2248 32.2614 44.7717 32.1534 45.3825 32.1534C46.0018 32.1534 46.5444 32.2614 47.0103 32.4773C47.479 32.6903 47.8469 32.9872 48.114 33.3679C48.381 33.7457 48.5188 34.1804 48.5273 34.6719H47.006ZM49.6726 33.598V32.2727H56.6357V33.598H53.9382V41H52.37V33.598H49.6726ZM58.044 41H56.3565L59.429 32.2727H61.3807L64.4574 41H62.7699L60.4389 34.0625H60.3707L58.044 41ZM58.0994 37.5781H62.7017V38.848H58.0994V37.5781ZM72.6669 35.2173H71.0732C71.0277 34.956 70.9439 34.7244 70.8217 34.5227C70.6996 34.3182 70.5476 34.1449 70.3658 34.0028C70.1839 33.8608 69.9766 33.7543 69.7436 33.6832C69.5135 33.6094 69.2649 33.5724 68.9979 33.5724C68.5234 33.5724 68.103 33.6918 67.7365 33.9304C67.37 34.1662 67.0831 34.5128 66.8757 34.9702C66.6683 35.4247 66.5646 35.9801 66.5646 36.6364C66.5646 37.304 66.6683 37.8665 66.8757 38.3239C67.0859 38.7784 67.3729 39.1222 67.7365 39.3551C68.103 39.5852 68.522 39.7003 68.9936 39.7003C69.255 39.7003 69.4993 39.6662 69.7266 39.598C69.9567 39.527 70.1626 39.4233 70.3445 39.2869C70.5291 39.1506 70.6839 38.983 70.8089 38.7841C70.9368 38.5852 71.0249 38.358 71.0732 38.1023L72.6669 38.1108C72.6072 38.5256 72.478 38.9148 72.2791 39.2784C72.0831 39.642 71.826 39.9631 71.5078 40.2415C71.1896 40.517 70.8175 40.733 70.3913 40.8892C69.9652 41.0426 69.4922 41.1193 68.9723 41.1193C68.2053 41.1193 67.5206 40.9418 66.9183 40.5866C66.3161 40.2315 65.8416 39.7188 65.495 39.0483C65.1484 38.3778 64.9751 37.5739 64.9751 36.6364C64.9751 35.696 65.1499 34.892 65.4993 34.2244C65.8487 33.554 66.3246 33.0412 66.9268 32.6861C67.5291 32.331 68.2109 32.1534 68.9723 32.1534C69.4581 32.1534 69.9098 32.2216 70.3274 32.358C70.745 32.4943 71.1172 32.6946 71.4439 32.9588C71.7706 33.2202 72.0391 33.5412 72.2493 33.9219C72.4624 34.2997 72.6016 34.7315 72.6669 35.2173ZM74.1147 41V32.2727H75.6957V36.2827H75.8022L79.207 32.2727H81.1374L77.7624 36.1889L81.1673 41H79.2667L76.663 37.2585L75.6957 38.4006V41H74.1147ZM88.1697 41H85.2124V32.2727H88.2294C89.0959 32.2727 89.8402 32.4474 90.4624 32.7969C91.0874 33.1435 91.5675 33.642 91.9027 34.2926C92.2379 34.9432 92.4055 35.7216 92.4055 36.6278C92.4055 37.5369 92.2365 38.3182 91.8984 38.9716C91.5632 39.625 91.0788 40.1264 90.4453 40.4759C89.8146 40.8253 89.0561 41 88.1697 41ZM86.7933 39.6321H88.093C88.701 39.6321 89.2081 39.5213 89.6143 39.2997C90.0206 39.0753 90.326 38.7415 90.5305 38.2983C90.7351 37.8523 90.8374 37.2955 90.8374 36.6278C90.8374 35.9602 90.7351 35.4062 90.5305 34.9659C90.326 34.5227 90.0234 34.1918 89.6229 33.973C89.2251 33.7514 88.7308 33.6406 88.1399 33.6406H86.7933V39.6321ZM93.9077 41V32.2727H99.5838V33.598H95.4886V35.9673H99.2898V37.2926H95.4886V39.6747H99.6179V41H93.9077ZM102.364 32.2727L104.636 39.142H104.725L106.992 32.2727H108.731L105.654 41H103.702L100.63 32.2727H102.364ZM109.88 41V32.2727H115.556V33.598H111.461V35.9673H115.262V37.2926H111.461V39.6747H115.591V41H109.88ZM117.169 41V32.2727H118.75V39.6747H122.594V41H117.169ZM131.425 36.6364C131.425 37.5767 131.249 38.3821 130.896 39.0526C130.547 39.7202 130.07 40.2315 129.464 40.5866C128.862 40.9418 128.179 41.1193 127.415 41.1193C126.651 41.1193 125.966 40.9418 125.361 40.5866C124.759 40.2287 124.281 39.7159 123.929 39.0483C123.58 38.3778 123.405 37.5739 123.405 36.6364C123.405 35.696 123.58 34.892 123.929 34.2244C124.281 33.554 124.759 33.0412 125.361 32.6861C125.966 32.331 126.651 32.1534 127.415 32.1534C128.179 32.1534 128.862 32.331 129.464 32.6861C130.07 33.0412 130.547 33.554 130.896 34.2244C131.249 34.892 131.425 35.696 131.425 36.6364ZM129.835 36.6364C129.835 35.9744 129.732 35.4162 129.524 34.9616C129.32 34.5043 129.036 34.1591 128.672 33.9261C128.308 33.6903 127.889 33.5724 127.415 33.5724C126.94 33.5724 126.521 33.6903 126.158 33.9261C125.794 34.1591 125.509 34.5043 125.301 34.9616C125.097 35.4162 124.994 35.9744 124.994 36.6364C124.994 37.2983 125.097 37.858 125.301 38.3153C125.509 38.7699 125.794 39.1151 126.158 39.3509C126.521 39.5838 126.94 39.7003 127.415 39.7003C127.889 39.7003 128.308 39.5838 128.672 39.3509C129.036 39.1151 129.32 38.7699 129.524 38.3153C129.732 37.858 129.835 37.2983 129.835 36.6364ZM132.919 41V32.2727H136.192C136.863 32.2727 137.425 32.3977 137.88 32.6477C138.337 32.8977 138.682 33.2415 138.915 33.679C139.151 34.1136 139.269 34.608 139.269 35.1619C139.269 35.7216 139.151 36.2187 138.915 36.6534C138.679 37.0881 138.331 37.4304 137.871 37.6804C137.411 37.9276 136.844 38.0511 136.171 38.0511H134.002V36.7514H135.958C136.35 36.7514 136.671 36.6832 136.921 36.5469C137.171 36.4105 137.355 36.223 137.475 35.9844C137.597 35.7457 137.658 35.4716 137.658 35.1619C137.658 34.8523 137.597 34.5795 137.475 34.3438C137.355 34.108 137.169 33.9247 136.917 33.794C136.667 33.6605 136.344 33.5938 135.949 33.5938H134.5V41H132.919ZM140.642 41V32.2727H146.318V33.598H142.223V35.9673H146.024V37.2926H142.223V39.6747H146.352V41H140.642ZM147.931 41V32.2727H151.204C151.874 32.2727 152.437 32.3892 152.891 32.6222C153.349 32.8551 153.694 33.1818 153.927 33.6023C154.163 34.0199 154.281 34.5071 154.281 35.0639C154.281 35.6236 154.161 36.1094 153.923 36.5213C153.687 36.9304 153.339 37.2472 152.879 37.4716C152.418 37.6932 151.853 37.804 151.183 37.804H148.852V36.4915H150.969C151.362 36.4915 151.683 36.4375 151.933 36.3295C152.183 36.2187 152.367 36.0582 152.487 35.848C152.609 35.6349 152.67 35.3736 152.67 35.0639C152.67 34.7543 152.609 34.4901 152.487 34.2713C152.364 34.0497 152.178 33.8821 151.928 33.7685C151.678 33.652 151.356 33.5938 150.961 33.5938H149.512V41H147.931ZM152.44 37.0455L154.6 41H152.836L150.714 37.0455H152.44Z" fill="#1A1525"/>
<defs>
<linearGradient id="paint0_linear_340_56" x1="0.00441067" y1="15.4941" x2="116.004" y2="14.4708" gradientUnits="userSpaceOnUse">
<stop offset="0.675" stop-color="#AA3CC6"/>
<stop offset="1" stop-color="#521D60"/>
</linearGradient>
</defs>
</svg>
