<svg width="1441" height="620" viewBox="0 0 1441 620" fill="none" xmlns="http://www.w3.org/2000/svg">
<path d="M0.205084 0H1440.2V134.431C1440.2 185.303 1410.97 231.647 1365.06 253.559L855.705 496.651L632.781 601.022C607.283 612.96 579.036 617.243 551.165 613.26C413.455 593.58 -10.6874 532.366 0.206018 526.5C13.2053 519.5 0.206018 527.052 0.206018 527.052L0.205084 0Z" fill="white"/>
<path d="M0.205084 0H1440.2V134.431C1440.2 185.303 1410.97 231.647 1365.06 253.559L855.705 496.651L632.781 601.022C607.283 612.96 579.036 617.243 551.165 613.26C413.455 593.58 -10.6874 532.366 0.206018 526.5C13.2053 519.5 0.206018 527.052 0.206018 527.052L0.205084 0Z" fill="url(#paint0_linear_342_57)"/>
<path d="M0.205078 0.316406H574.205L562.978 60.46C556.98 92.5927 533.477 118.652 502.132 127.923L214.144 213.104C198.373 217.769 181.488 216.972 166.227 210.841L0.205078 144.146V0.316406Z" fill="#9074C5"/>
<defs>
<linearGradient id="paint0_linear_342_57" x1="80.6595" y1="389.125" x2="2127.04" y2="-710.659" gradientUnits="userSpaceOnUse">
<stop stop-color="#523C7B"/>
<stop offset="0.361354" stop-color="#7C62AD"/>
<stop offset="0.688706" stop-color="#DCD1F1"/>
<stop offset="1" stop-color="white" stop-opacity="0"/>
</linearGradient>
</defs>
</svg>
