<svg width="45" height="34" viewBox="0 0 45 34" fill="none" xmlns="http://www.w3.org/2000/svg">
<path d="M40.7812 0.25C43.0664 0.25 45 2.18359 45 4.46875V29.7812C45 32.1543 43.0664 34 40.7812 34H4.21875C1.8457 34 0 32.1543 0 29.7812V4.46875C0 2.18359 1.8457 0.25 4.21875 0.25H40.7812ZM40.7812 4.46875H4.21875V8.07227C6.15234 9.74219 9.31641 12.2031 15.9961 17.4766C17.4902 18.6191 20.3906 21.4316 22.5 21.3438C24.5215 21.4316 27.4219 18.6191 28.916 17.4766C35.5957 12.2031 38.7598 9.74219 40.7812 8.07227V4.46875ZM4.21875 29.7812H40.7812V13.5215C38.7598 15.1035 35.8594 17.3887 31.5527 20.8164C29.5312 22.3105 26.1914 25.6504 22.5 25.5625C18.7207 25.6504 15.293 22.3105 13.3594 20.8164C9.05273 17.3887 6.15234 15.1035 4.21875 13.5215V29.7812Z" fill="url(#paint0_linear_318_77)"/>
<defs>
<linearGradient id="paint0_linear_318_77" x1="0" y1="17.5" x2="45" y2="17.5" gradientUnits="userSpaceOnUse">
<stop offset="0.675" stop-color="#AA3CC6"/>
<stop offset="1" stop-color="#521D60"/>
</linearGradient>
</defs>
</svg>
