<svg width="40" height="40" viewBox="0 0 40 40" fill="none" xmlns="http://www.w3.org/2000/svg">
<path d="M36.5625 0.4375C38.0566 0.4375 39.375 1.75586 39.375 3.33789V37C39.375 38.582 38.0566 39.8125 36.5625 39.8125H2.72461C1.23047 39.8125 0 38.582 0 37V3.33789C0 1.75586 1.23047 0.4375 2.72461 0.4375H36.5625ZM11.8652 34.1875V15.4668H6.06445V34.1875H11.8652ZM8.96484 12.8301C10.8105 12.8301 12.3047 11.3359 12.3047 9.49023C12.3047 7.64453 10.8105 6.0625 8.96484 6.0625C7.03125 6.0625 5.53711 7.64453 5.53711 9.49023C5.53711 11.3359 7.03125 12.8301 8.96484 12.8301ZM33.75 34.1875V23.9043C33.75 18.8945 32.6074 14.9395 26.7188 14.9395C23.9062 14.9395 21.9727 16.5215 21.1816 18.0156H21.0938V15.4668H15.5566V34.1875H21.3574V24.959C21.3574 22.498 21.7969 20.125 24.873 20.125C27.8613 20.125 27.8613 22.9375 27.8613 25.0469V34.1875H33.75Z" fill="url(#paint0_linear_318_79)"/>
<defs>
<linearGradient id="paint0_linear_318_79" x1="0" y1="20.5" x2="40" y2="20.5" gradientUnits="userSpaceOnUse">
<stop offset="0.675" stop-color="#AA3CC6"/>
<stop offset="1" stop-color="#521D60"/>
</linearGradient>
</defs>
</svg>
